<?xml version='1.0' encoding='utf-8'?>
<svg xmlns="http://www.w3.org/2000/svg" width="80mm" height="70mm" viewBox="0 0 1000000 875000"><defs><style>.C1 {stroke: #000000; stroke-width: 3125; stroke-opacity: 1.000; fill: none; fill-opacity: 1.000;}</style><style>.C2 {stroke: none; stroke-width: none; stroke-opacity: 1.000; fill: #000000; fill-opacity: 1.000;}</style></defs><rect fill="#ffffff" x="0" y="0" width="1000000" height="875000" fill-opacity="0.0" /><g stroke-linecap="round" stroke-linejoin="round" fill-rule="evenodd"><path d="M 0 250000 l 250000 0" class="C1" /><path d="M 750000 250000 l 250000 0" class="C1" /><path d="M 0 625000 l 250000 0" class="C1" /><path d="M 750000 625000 l 250000 0" class="C1" /><path d="M 250000 875000 l 0 -875000" class="C1" /><path d="M 750000 875000 l 0 -875000" class="C1" /><path d="M 250000 875000 l 500000 0" class="C1" /><path d="M 250000 0 l 500000 0" class="C1" /><path d="M 298112 192507 l 0 80643 l 44541 0 l 0 6857 l -52453 0 l 0 -87500 l 7912 0 Z" class="C2" /><path d="M 343796 567507 l 0 87500 l -10198 0 l -31589 -56673 q -4864 -9025 -12483 -23970 l -1172 0 q 234 18696 234 26256 l 0 54387 l -7443 0 l 0 -87500 l 12249 0 l 30124 54035 q 5392 10022 12483 24556 l 1172 0 q -820 -15531 -820 -27252 l 0 -51340 l 7443 0 Z" class="C2" /><path d="M 653772 243612 l 30827 0 l 0 -30827 l 5509 0 l 0 30827 l 31062 0 l 0 5392 l -31062 0 l 0 31003 l -5509 0 l 0 -31003 l -30827 0 l 0 -5392 Z" class="C2" /><path d="M 703998 618026 l 0 6740 l -32996 0 l 0 -6740 l 32996 0 Z" class="C2" /></g></svg>