<?xml version='1.0' encoding='utf-8'?>
<svg xmlns="http://www.w3.org/2000/svg" width="80mm" height="85.5mm" viewBox="0 0 935673 1000000"><defs><style>.C1 {stroke: #000000; stroke-width: 2924; stroke-opacity: 1.000; fill: none; fill-opacity: 1.000;}</style></defs><rect fill="#ffffff" x="0" y="0" width="935673" height="1000000" fill-opacity="0.0" /><g stroke-linecap="round" stroke-linejoin="round" fill-rule="evenodd"><path d="M 0 175439 l 233918 0" class="C1" /><path d="M 222222 298246 l 245614 -122807" class="C1" /><path d="M 467836 175439 l 233918 0" class="C1" /><path d="M 0 526316 l 233918 0" class="C1" /><path d="M 222222 649123 l 245614 -122807" class="C1" /><path d="M 467836 526316 l 233918 0" class="C1" /><path d="M 0 877193 l 233918 0" class="C1" /><path d="M 222222 1000000 l 245614 -122807" class="C1" /><path d="M 467836 877193 l 233918 0" class="C1" /><path d="M 175439 233918 l 116959 -116959" class="C1" /><path d="M 175439 116959 l 116959 116959" class="C1" /><path d="M 175439 584795 l 116959 -116959" class="C1" /><path d="M 175439 467836 l 116959 116959" class="C1" /><path d="M 175439 935673 l 116959 -116959" class="C1" /><path d="M 175439 818713 l 116959 116959" class="C1" /><path d="M 350877 233918 l 0 81871" class="C1" /><path d="M 350877 374269 l 0 81871" class="C1" /><path d="M 350877 514620 l 0 70175" class="C1" /><path d="M 350877 654971 l 0 81871" class="C1" /><path d="M 350877 795322 l 0 81871" class="C1" /><path d="M 584795 175439 l 0 701754" class="C1" /><path d="M 701754 175439 l 0 701754" class="C1" /><path d="M 818713 175439 l 0 701754" class="C1" /><path d="M 701754 175439 l 233918 0" class="C1" /><path d="M 701754 526316 l 233918 0" class="C1" /><path d="M 701754 877193 l 233918 0" class="C1" /><path d="M 350877 175439 l 0 -35088" class="C1" /><path d="M 350877 105263 l 0 -35088" class="C1" /><path d="M 350877 35088 l 0 -35088" class="C1" /><path d="M 701754 175439 l 0 -35088" class="C1" /><path d="M 701754 105263 l 0 -35088" class="C1" /><path d="M 701754 35088 l 0 -35088" class="C1" /><path d="M 350877 0 l 23392 0" class="C1" /><path d="M 409357 0 l 58480 0" class="C1" /><path d="M 502924 0 l 58480 0" class="C1" /><path d="M 596491 0 l 58480 0" class="C1" /><path d="M 678363 0 l 23392 0" class="C1" /><path d="M 584795 877193 c 0 32297 26182 58480 58480 58480 c 32297 0 58480 -26182 58480 -58480" class="C1" /><path d="M 701754 877193 c 0 32297 26182 58480 58480 58480 c 32297 0 58480 -26182 58480 -58480" class="C1" /></g></svg>