<?xml version='1.0' encoding='utf-8'?>
<svg xmlns="http://www.w3.org/2000/svg" width="80mm" height="55.5mm" viewBox="0 0 1000000 693750"><defs><style>.C1 {stroke: #000000; stroke-width: 3125; stroke-opacity: 1.000; fill: none; fill-opacity: 1.000;}</style></defs><rect fill="#ffffff" x="0" y="0" width="1000000" height="693750" fill-opacity="0.0" /><g stroke-linecap="round" stroke-linejoin="round" fill-rule="evenodd"><path d="M 0 187500 l 250000 0" class="C1" /><path d="M 237500 318750 l 262500 -131250" class="C1" /><path d="M 500000 187500 l 250000 0" class="C1" /><path d="M 0 562500 l 250000 0" class="C1" /><path d="M 237500 693750 l 262500 -131250" class="C1" /><path d="M 500000 562500 l 250000 0" class="C1" /><path d="M 187500 250000 l 125000 -125000" class="C1" /><path d="M 187500 125000 l 125000 125000" class="C1" /><path d="M 187500 625000 l 125000 -125000" class="C1" /><path d="M 187500 500000 l 125000 125000" class="C1" /><path d="M 375000 250000 l 0 87500" class="C1" /><path d="M 375000 400000 l 0 87500" class="C1" /><path d="M 375000 550000 l 0 75000" class="C1" /><path d="M 625000 187500 l 0 375000" class="C1" /><path d="M 750000 187500 l 0 375000" class="C1" /><path d="M 875000 187500 l 0 375000" class="C1" /><path d="M 750000 187500 l 250000 0" class="C1" /><path d="M 750000 562500 l 250000 0" class="C1" /><path d="M 375000 187500 l 0 -37500" class="C1" /><path d="M 375000 112500 l 0 -37500" class="C1" /><path d="M 375000 37500 l 0 -37500" class="C1" /><path d="M 750000 187500 l 0 -37500" class="C1" /><path d="M 750000 112500 l 0 -37500" class="C1" /><path d="M 750000 37500 l 0 -37500" class="C1" /><path d="M 375000 0 l 25000 0" class="C1" /><path d="M 437500 0 l 62500 0" class="C1" /><path d="M 537500 0 l 62500 0" class="C1" /><path d="M 637500 0 l 62500 0" class="C1" /><path d="M 725000 0 l 25000 0" class="C1" /><path d="M 625000 562500 c 0 34518 27982 62500 62500 62500 c 34518 0 62500 -27982 62500 -62500" class="C1" /><path d="M 750000 562500 c 0 34518 27982 62500 62500 62500 c 34518 0 62500 -27982 62500 -62500" class="C1" /></g></svg>