<?xml version='1.0' encoding='utf-8'?>
<svg xmlns="http://www.w3.org/2000/svg" width="60mm" height="75.5mm" viewBox="0 0 794702 1000000"><defs><style>.C1 {stroke: #000000; stroke-width: 3311; stroke-opacity: 1.000; fill: none; fill-opacity: 1.000;}</style></defs><rect fill="#ffffff" x="0" y="0" width="794702" height="1000000" fill-opacity="0.0" /><g stroke-linecap="round" stroke-linejoin="round" fill-rule="evenodd"><path d="M 0 66225 l 264901 0" class="C1" /><path d="M 251656 205298 l 278146 -139073" class="C1" /><path d="M 529801 66225 l 264901 0" class="C1" /><path d="M 0 463576 l 264901 0" class="C1" /><path d="M 251656 602649 l 278146 -139073" class="C1" /><path d="M 529801 463576 l 264901 0" class="C1" /><path d="M 0 860927 l 264901 0" class="C1" /><path d="M 251656 1000000 l 278146 -139073" class="C1" /><path d="M 529801 860927 l 264901 0" class="C1" /><path d="M 198675 132450 l 132450 -132450" class="C1" /><path d="M 198675 0 l 132450 132450" class="C1" /><path d="M 198675 529801 l 132450 -132450" class="C1" /><path d="M 198675 397351 l 132450 132450" class="C1" /><path d="M 198675 927152 l 132450 -132450" class="C1" /><path d="M 198675 794702 l 132450 132450" class="C1" /><path d="M 397351 132450 l 0 92715" class="C1" /><path d="M 397351 291391 l 0 92715" class="C1" /><path d="M 397351 450331 l 0 79470" class="C1" /><path d="M 397351 609272 l 0 92715" class="C1" /><path d="M 397351 768212 l 0 92715" class="C1" /></g></svg>