<?xml version='1.0' encoding='utf-8'?>
<svg xmlns="http://www.w3.org/2000/svg" width="60mm" height="70.5mm" viewBox="0 0 851064 1000000"><defs><style>.C1 {stroke: #000000; stroke-width: 3546; stroke-opacity: 1.000; fill: none; fill-opacity: 1.000;}</style></defs><rect fill="#ffffff" x="0" y="0" width="851064" height="1000000" fill-opacity="0.0" /><g stroke-linecap="round" stroke-linejoin="round" fill-rule="evenodd"><path d="M 0 0 l 283688 0" class="C1" /><path d="M 269504 148936 l 297872 -148936" class="C1" /><path d="M 567376 0 l 283688 0" class="C1" /><path d="M 0 425532 l 283688 0" class="C1" /><path d="M 269504 574468 l 297872 -148936" class="C1" /><path d="M 567376 425532 l 283688 0" class="C1" /><path d="M 0 851064 l 283688 0" class="C1" /><path d="M 269504 1000000 l 297872 -148936" class="C1" /><path d="M 567376 851064 l 283688 0" class="C1" /><path d="M 425532 70922 l 0 99291" class="C1" /><path d="M 425532 241135 l 0 99291" class="C1" /><path d="M 425532 411348 l 0 85106" class="C1" /><path d="M 425532 581560 l 0 99291" class="C1" /><path d="M 425532 751773 l 0 99291" class="C1" /><path d="M 141844 0 c 0 39169 31753 70922 70922 70922 c 39169 0 70922 -31753 70922 -70922" class="C1" /><path d="M 141844 425532 c 0 39169 31753 70922 70922 70922 c 39169 0 70922 -31753 70922 -70922" class="C1" /><path d="M 141844 851064 c 0 39169 31753 70922 70922 70922 c 39169 0 70922 -31753 70922 -70922" class="C1" /></g></svg>