<?xml version='1.0' encoding='utf-8'?>
<svg xmlns="http://www.w3.org/2000/svg" width="60mm" height="50mm" viewBox="0 0 1000000 833333"><defs><style>.C1 {stroke: #000000; stroke-width: 4167; stroke-opacity: 1.000; fill: none; fill-opacity: 1.000;}</style></defs><rect fill="#ffffff" x="0" y="0" width="1000000" height="833333" fill-opacity="0.0" /><g stroke-linecap="round" stroke-linejoin="round" fill-rule="evenodd"><path d="M 0 166667 l 333333 0" class="C1" /><path d="M 333333 166667 l 0 -166667" class="C1" /><path d="M 300000 33333 l 366667 133333" class="C1" /><path d="M 666667 166667 l 333333 0" class="C1" /><path d="M 350000 766667 l 300000 0" class="C1" /><path d="M 500000 116667 l 0 100000" class="C1" /><path d="M 500000 300000 l 0 100000" class="C1" /><path d="M 500000 483333 l 0 100000" class="C1" /><path d="M 500000 666667 l 0 100000" class="C1" /><path d="M 500000 400000 l 133333 41667" class="C1" /><path d="M 633333 441667 l -133333 41667" class="C1" /><path d="M 250000 533333 l 0 -233333" class="C1" /><path d="M 166667 416667 l 83333 -116667" class="C1" /><path d="M 333333 416667 l -83333 -116667" class="C1" /><path d="M 351371 767159 c 37927 42123 91947 66174 148629 66174 c 56682 0 110701 -24051 148629 -66174" class="C1" /><path d="M 416667 416667 c 0 92047 -74619 166667 -166667 166667 c -92047 0 -166667 -74619 -166667 -166667 c 0 -92047 74619 -166667 166667 -166667 c 92047 0 166667 74619 166667 166667" class="C1" /></g></svg>