<?xml version='1.0' encoding='utf-8'?>
<svg xmlns="http://www.w3.org/2000/svg" width="60mm" height="22.5mm" viewBox="0 0 1000000 375000"><defs><style>.C1 {stroke: #000000; stroke-width: 4167; stroke-opacity: 1.000; fill: none; fill-opacity: 1.000;}</style></defs><rect fill="#ffffff" x="0" y="0" width="1000000" height="375000" fill-opacity="0.0" /><g stroke-linecap="round" stroke-linejoin="round" fill-rule="evenodd"><path d="M 0 375000 l 333333 0" class="C1" /><path d="M 333333 375000 l 0 -166667" class="C1" /><path d="M 300000 241667 l 366667 133333" class="C1" /><path d="M 666667 375000 l 333333 0" class="C1" /><path d="M 483333 58333 l 33333 0" class="C1" /><path d="M 483333 25000 l 33333 0" class="C1" /><path d="M 500000 58333 l 0 -33333" class="C1" /><path d="M 541667 41667 c 0 23012 -18655 41667 -41667 41667 c -23012 0 -41667 -18655 -41667 -41667 c 0 -23012 18655 -41667 41667 -41667 c 23012 0 41667 18655 41667 41667" class="C1" /></g></svg>