<?xml version='1.0' encoding='utf-8'?>
<svg xmlns="http://www.w3.org/2000/svg" width="60mm" height="45mm" viewBox="0 0 1000000 750000"><defs><style>.C1 {stroke: #000000; stroke-width: 4167; stroke-opacity: 1.000; fill: none; fill-opacity: 1.000;}</style></defs><rect fill="#ffffff" x="0" y="0" width="1000000" height="750000" fill-opacity="0.0" /><g stroke-linecap="round" stroke-linejoin="round" fill-rule="evenodd"><path d="M 0 166667 l 333333 0" class="C1" /><path d="M 333333 166667 l 0 -166667" class="C1" /><path d="M 300000 33333 l 366667 133333" class="C1" /><path d="M 666667 166667 l 333333 0" class="C1" /><path d="M 483333 100000 l 0 481667" class="C1" /><path d="M 516667 112500 l 0 469167" class="C1" /><path d="M 0 166667 l 333333 0" class="C1" /><path d="M 333333 166667 l 0 -166667" class="C1" /><path d="M 300000 33333 l 366667 133333" class="C1" /><path d="M 666667 166667 l 333333 0" class="C1" /><path d="M 483333 100000 l 0 481667" class="C1" /><path d="M 516667 112500 l 0 469167" class="C1" /><path d="M 333333 416667 c 0 92047 74619 166667 166667 166667 c 92047 0 166667 -74619 166667 -166667" class="C1" /><path d="M 666667 750000 c 0 -92047 -74619 -166667 -166667 -166667 c -92047 0 -166667 74619 -166667 166667" class="C1" /></g></svg>