<?xml version='1.0' encoding='utf-8'?>
<svg xmlns="http://www.w3.org/2000/svg" width="60mm" height="100mm" viewBox="0 0 600000 1000000"><defs><style>.C1 {stroke: #000000; stroke-width: 2500; stroke-opacity: 1.000; fill: none; fill-opacity: 1.000;}</style></defs><rect fill="#ffffff" x="0" y="0" width="600000" height="1000000" fill-opacity="0.0" /><g stroke-linecap="round" stroke-linejoin="round" fill-rule="evenodd"><path d="M 0 200000 l 200000 0" class="C1" /><path d="M 400000 200000 l 200000 0" class="C1" /><path d="M 0 500000 l 200000 0" class="C1" /><path d="M 400000 500000 l 200000 0" class="C1" /><path d="M 0 800000 l 200000 0" class="C1" /><path d="M 400000 800000 l 200000 0" class="C1" /><path d="M 200000 1000000 l 0 -1000000" class="C1" /><path d="M 400000 1000000 l 0 -1000000" class="C1" /><path d="M 200000 1000000 l 200000 0" class="C1" /><path d="M 200000 0 l 200000 0" class="C1" /><path d="M 250000 200000 l -50000 0" class="C1" /><path d="M 250000 200000 l 0 -100000" class="C1" /><path d="M 350000 200000 l 50000 0" class="C1" /><path d="M 350000 200000 l 0 -100000" class="C1" /><path d="M 250000 100000 l 100000 0" class="C1" /><path d="M 250000 500000 l -50000 0" class="C1" /><path d="M 250000 500000 l 0 -100000" class="C1" /><path d="M 350000 500000 l 50000 0" class="C1" /><path d="M 350000 500000 l 0 -100000" class="C1" /><path d="M 250000 400000 l 100000 0" class="C1" /><path d="M 250000 800000 l -50000 0" class="C1" /><path d="M 250000 800000 l 0 -100000" class="C1" /><path d="M 350000 800000 l 50000 0" class="C1" /><path d="M 350000 800000 l 0 -100000" class="C1" /><path d="M 250000 700000 l 100000 0" class="C1" /></g></svg>