<?xml version='1.0' encoding='utf-8'?>
<svg xmlns="http://www.w3.org/2000/svg" width="80mm" height="100mm" viewBox="0 0 800000 1000000"><defs><style>.C1 {stroke: #000000; stroke-width: 2500; stroke-opacity: 1.000; fill: none; fill-opacity: 1.000;}</style><style>.C2 {stroke: none; stroke-width: none; stroke-opacity: 1.000; fill: #000000; fill-opacity: 1.000;}</style></defs><rect fill="#ffffff" x="0" y="0" width="800000" height="1000000" fill-opacity="0.0" /><g stroke-linecap="round" stroke-linejoin="round" fill-rule="evenodd"><path d="M 700000 0 l 0 335000" class="C1" /><path d="M 400000 0 l 0 200000" class="C1" /><path d="M 100000 0 l 0 335000" class="C1" /><path d="M 310000 770000 l 180000 0" class="C1" /><path d="M 310000 770000 l 0 40000" class="C1" /><path d="M 490000 730000 l 0 40000" class="C1" /><path d="M 800000 600000 c -0 220914 -179086 400000 -400000 400000 c -220914 0 -400000 -179086 -400000 -400000 c 0 -220914 179086 -400000 400000 -400000 c 220914 0 400000 179086 400000 400000" class="C1" /><path d="M 447544 636187 l -12551 0 l 0 -83697 l -273 0 l -28786 83697 l -11869 0 l -28649 -85061 l -409 0 l 0 85061 l -12551 0 l 0 -100000 l 19782 0 l 23670 70805 q 3956 11801 4570 14802 l 273 0 q 1842 -5798 5321 -16030 l 23874 -69577 l 17599 0 l 0 100000 Z" class="C2" /></g></svg>