<?xml version='1.0' encoding='utf-8'?>
<svg xmlns="http://www.w3.org/2000/svg" width="80mm" height="30mm" viewBox="0 0 1000000 375000"><defs><style>.C1 {stroke: #000000; stroke-width: 3125; stroke-opacity: 1.000; fill: none; fill-opacity: 1.000;}</style></defs><rect fill="#ffffff" x="0" y="0" width="1000000" height="375000" fill-opacity="0.0" /><g stroke-linecap="round" stroke-linejoin="round" fill-rule="evenodd"><path d="M 0 0 l 375000 0" class="C1" /><path d="M 625000 0 l 375000 0" class="C1" /><path d="M 0 375000 l 375000 0" class="C1" /><path d="M 625000 375000 l 375000 0" class="C1" /><path d="M 625000 0 c -25888 0 -46875 20987 -46875 46875 c 0 25888 20987 46875 46875 46875" class="C1" /><path d="M 625000 93750 c -25888 0 -46875 20987 -46875 46875 c 0 25888 20987 46875 46875 46875" class="C1" /><path d="M 625000 187500 c -25888 0 -46875 20987 -46875 46875 c 0 25888 20987 46875 46875 46875" class="C1" /><path d="M 625000 281250 c -25888 0 -46875 20987 -46875 46875 c 0 25888 20987 46875 46875 46875" class="C1" /><path d="M 375000 93750 c 25888 0 46875 -20987 46875 -46875 c 0 -25888 -20987 -46875 -46875 -46875" class="C1" /><path d="M 375000 187500 c 25888 0 46875 -20987 46875 -46875 c 0 -25888 -20987 -46875 -46875 -46875" class="C1" /><path d="M 375000 281250 c 25888 0 46875 -20987 46875 -46875 c 0 -25888 -20987 -46875 -46875 -46875" class="C1" /><path d="M 375000 375000 c 25888 0 46875 -20987 46875 -46875 c 0 -25888 -20987 -46875 -46875 -46875" class="C1" /></g></svg>