<?xml version='1.0' encoding='utf-8'?>
<svg xmlns="http://www.w3.org/2000/svg" width="60mm" height="60mm" viewBox="0 0 1000000 1000000"><defs><style>.C1 {stroke: #000000; stroke-width: 4167; stroke-opacity: 1.000; fill: none; fill-opacity: 1.000;}</style><style>.C2 {stroke: none; stroke-width: none; stroke-opacity: 1.000; fill: #000000; fill-opacity: 1.000;}</style></defs><rect fill="#ffffff" x="0" y="0" width="1000000" height="1000000" fill-opacity="0.0" /><g stroke-linecap="round" stroke-linejoin="round" fill-rule="evenodd"><path d="M 350000 783333 l 300000 0" class="C1" /><path d="M 350000 783333 l 0 66667" class="C1" /><path d="M 650000 716667 l 0 66667" class="C1" /><path d="M 1000000 500000 c -0 276142 -223858 500000 -500000 500000 c -276142 -0 -500000 -223858 -500000 -500000 c 0 -276142 223858 -500000 500000 -500000 c 276142 0 500000 223858 500000 500000" class="C1" /><path d="M 423811 395847 l 33601 0 l 42532 113418 l 42755 -113418 l 33601 0 l 0 166667 l -21992 0 l 0 -146350 l -42978 114311 l -22661 0 l -42978 -114311 l 0 146350 l -21880 0 l 0 -166667 Z" class="C2" /></g></svg>