<?xml version='1.0' encoding='utf-8'?>
<svg xmlns="http://www.w3.org/2000/svg" width="41.5mm" height="35.4mm" viewBox="0 0 1000000 853012"><defs><style>.C1 {stroke: #000000; stroke-width: 6024; stroke-opacity: 1.000; fill: none; fill-opacity: 1.000;}</style><style>.C2 {stroke: none; stroke-width: none; stroke-opacity: 1.000; fill: #000000; fill-opacity: 1.000;}</style></defs><rect fill="#ffffff" x="0" y="0" width="1000000" height="853012" fill-opacity="0.0" /><g stroke-linecap="round" stroke-linejoin="round" fill-rule="evenodd"><path d="M 0 719359 l 602410 0" class="C1" /><path d="M 0 237431 l 602410 0" class="C1" /><path d="M 963855 478395 l -361446 240964" class="C1" /><path d="M 963855 478395 l -361446 -240964" class="C1" /><path d="M 963855 442250 c 19962 0 36145 16182 36145 36145 c 0 19962 -16182 36145 -36145 36145 c -19962 0 -36145 -16182 -36145 -36145 c 0 -19962 16182 -36145 36145 -36145 Z" class="C2" /><path d="M 558913 826445 l 86992 0 l 0 26469 l -86992 0 l 0 -26469 Z" class="C2" /><path d="M 615967 98 l 0 89897 l 89897 0 l 0 27437 l -89897 0 l 0 89897 l -27114 0 l 0 -89897 l -89897 0 l 0 -27437 l 89897 0 l 0 -89897 l 27114 0 Z" class="C2" /></g></svg>